<svg xmlns="http://www.w3.org/2000/svg" id="Layer_2" data-name="Layer 2" viewBox="0 0 1440.04 210.3"><defs><style>.cls-4{fill:#fff}</style></defs><g id="Layer_1-2" data-name="Layer 1"><path d="M508.41 185.26c-11.56 0-22.32-1.94-32.26-5.82-9.94-3.88-18.65-9.34-26.13-16.39-7.48-7.05-13.29-15.34-17.45-24.86s-6.24-19.85-6.24-30.99 2.08-21.65 6.24-31.1c4.16-9.45 9.94-17.63 17.35-24.54 7.4-6.91 16.04-12.3 25.92-16.18 9.87-3.88 20.59-5.82 32.16-5.82s22.42 1.83 32.15 5.5c9.73 3.67 18.19 8.75 25.39 15.23L537.4 78.64c-3.38-3.67-7.51-6.56-12.38-8.67-4.87-2.12-10.54-3.17-17.03-3.17-5.64 0-10.83.92-15.55 2.75-4.73 1.83-8.78 4.52-12.16 8.04-3.38 3.53-6.03 7.79-7.93 12.8-1.9 5.01-2.86 10.61-2.86 16.82s.95 12.03 2.86 17.03c1.9 5.01 4.55 9.27 7.93 12.8 3.38 3.53 7.44 6.24 12.16 8.14 4.72 1.9 9.91 2.86 15.55 2.86 6.35 0 12.02-.99 17.03-2.96 5-1.97 9.34-4.87 13.01-8.67l28.35 28.35c-7.48 6.49-15.87 11.53-25.17 15.13-9.31 3.6-20.24 5.39-32.79 5.39Z" class="cls-4"/><path d="M562.56 182.72V27.87h41.46v154.85h-41.46Zm66.22 0v-58.39c0-4.09-1.16-7.23-3.49-9.41-2.33-2.18-5.26-3.28-8.78-3.28-2.4 0-4.55.5-6.45 1.48-1.9.99-3.38 2.43-4.44 4.34-1.06 1.9-1.59 4.2-1.59 6.88l-16.08-7.19c0-8.46 1.72-15.72 5.18-21.79 3.46-6.06 8.25-10.72 14.39-13.96 6.13-3.24 13.29-4.87 21.47-4.87s15.79 1.66 22 4.97c6.2 3.32 10.96 7.83 14.28 13.54 3.31 5.71 4.97 12.31 4.97 19.78v67.91h-41.46Z" class="cls-4"/><path d="M715.51 184.84c-9.73 0-18.33-2.33-25.81-6.98s-13.33-11.03-17.56-19.15c-4.23-8.11-6.35-17.45-6.35-28.03s2.12-19.96 6.35-28.14c4.23-8.18 10.08-14.56 17.56-19.15 7.47-4.58 16.08-6.88 25.81-6.88 6.06 0 11.67 1.02 16.82 3.07s9.45 4.9 12.9 8.57c3.46 3.67 5.68 7.9 6.66 12.69v59.66c-.99 4.8-3.21 9.03-6.66 12.69-3.46 3.67-7.76 6.52-12.9 8.57-5.15 2.04-10.76 3.07-16.82 3.07Zm9.3-36.39c5.22 0 9.41-1.66 12.59-4.97 3.17-3.31 4.76-7.58 4.76-12.8 0-3.52-.71-6.59-2.12-9.2-1.41-2.61-3.42-4.69-6.03-6.24-2.61-1.55-5.61-2.33-8.99-2.33s-6.38.78-8.99 2.33c-2.61 1.55-4.69 3.67-6.24 6.35-1.55 2.68-2.33 5.71-2.33 9.1s.74 6.42 2.22 9.1c1.48 2.68 3.56 4.8 6.24 6.35 2.68 1.55 5.64 2.33 8.88 2.33Zm16.08 34.27V154.8l5.71-25.39-5.71-25.17v-25.6h40.4v104.08h-40.4Z" class="cls-4"/><path d="M826.78 185.9c-6.49 0-12.98-.85-19.46-2.54-6.49-1.69-12.52-4.02-18.09-6.98-5.57-2.96-10.26-6.35-14.07-10.15l21.79-22.42c3.38 3.38 7.44 6.07 12.16 8.04 4.72 1.98 9.7 2.96 14.91 2.96 2.4 0 4.26-.32 5.61-.95 1.34-.63 2.01-1.51 2.01-2.64 0-1.97-1.16-3.45-3.49-4.44-2.33-.99-5.29-1.9-8.88-2.75-3.6-.85-7.4-1.94-11.42-3.28a52.286 52.286 0 0 1-11.53-5.5c-3.67-2.33-6.63-5.57-8.88-9.73-2.26-4.16-3.38-9.48-3.38-15.97s1.87-12.51 5.61-17.66 9.02-9.24 15.87-12.27c6.84-3.03 14.77-4.55 23.8-4.55s18.05 1.55 26.65 4.65c8.6 3.1 15.44 7.76 20.52 13.96l-22 22.42c-3.53-3.95-7.4-6.59-11.63-7.93-4.23-1.34-7.76-2.01-10.58-2.01s-4.55.39-5.61 1.16c-1.06.78-1.59 1.73-1.59 2.86 0 1.55 1.13 2.82 3.38 3.81 2.25.99 5.18 1.9 8.78 2.75 3.6.85 7.37 1.98 11.32 3.38 3.95 1.41 7.72 3.38 11.32 5.92 3.6 2.54 6.52 5.89 8.78 10.05 2.25 4.16 3.38 9.56 3.38 16.18 0 10.3-4.09 18.48-12.27 24.54-8.18 6.06-19.18 9.1-33 9.1Z" class="cls-4"/><path d="M926.2 185.26c-12.13 0-22.78-2.29-31.94-6.88-9.17-4.58-16.33-11-21.47-19.25-5.15-8.25-7.72-17.73-7.72-28.45s2.5-19.96 7.51-28.14c5-8.18 11.88-14.63 20.62-19.36 8.74-4.72 18.62-7.09 29.62-7.09s20.45 2.22 28.77 6.66c8.32 4.44 14.84 10.61 19.57 18.51 4.72 7.9 7.09 16.92 7.09 27.08 0 2.12-.11 4.34-.32 6.66-.21 2.33-.67 5.04-1.38 8.14l-93.93.63v-25.39l78.48-.63-19.25 11.21c0-5.64-.67-10.26-2.01-13.86-1.34-3.6-3.35-6.31-6.03-8.14-2.68-1.83-6.07-2.75-10.15-2.75s-7.9 1.06-11 3.17c-3.1 2.12-5.47 5.15-7.09 9.1-1.62 3.95-2.43 8.75-2.43 14.38s.88 10.61 2.64 14.49c1.76 3.88 4.34 6.81 7.72 8.78 3.38 1.98 7.62 2.96 12.69 2.96s9.27-.81 13.01-2.43c3.73-1.62 7.16-4.19 10.26-7.72l20.73 20.52c-5.22 5.92-11.5 10.37-18.83 13.33-7.34 2.96-15.73 4.44-25.17 4.44Zm75.31-2.54V38.45h11.21v144.28h-11.21Zm7.19 0v-10.15h81.45v10.15h-81.45Zm154.43 2.12c-9.45 0-17.95-2.25-25.49-6.77-7.54-4.51-13.51-10.61-17.88-18.3-4.37-7.68-6.56-16.39-6.56-26.13s2.19-18.26 6.56-26.02c4.37-7.75 10.29-13.93 17.77-18.51 7.47-4.58 15.87-6.88 25.17-6.88 7.62 0 14.42 1.45 20.41 4.34 5.99 2.89 10.93 6.95 14.81 12.16 3.88 5.22 6.38 11.42 7.51 18.62v32.16c-1.27 7.19-3.84 13.43-7.72 18.72-3.88 5.29-8.75 9.38-14.6 12.27-5.85 2.89-12.52 4.34-19.99 4.34Zm1.48-10.15c11.28 0 20.27-3.77 26.97-11.32 6.7-7.54 10.05-17.45 10.05-29.72 0-8.32-1.52-15.55-4.55-21.68-3.04-6.13-7.37-10.93-13.01-14.38-5.64-3.45-12.2-5.18-19.67-5.18s-14.63 1.76-20.63 5.29c-6 3.53-10.72 8.39-14.17 14.6-3.46 6.21-5.18 13.26-5.18 21.16s1.72 15.16 5.18 21.37c3.46 6.21 8.21 11.07 14.28 14.6 6.06 3.53 12.97 5.29 20.73 5.29Zm36.6 8.03v-26.44l2.33-24.12-2.33-23.91v-23.9H1212v98.37h-10.79Zm46.75 0V34.22h10.79v74.04l-2.54 23.91 2.54 24.12v26.44h-10.79Zm49.92 2.12c-7.34 0-14.07-1.48-20.2-4.44s-11.25-7.09-15.34-12.38c-4.09-5.29-6.77-11.46-8.04-18.51v-32.16c1.27-7.19 3.98-13.43 8.14-18.72 4.16-5.29 9.31-9.34 15.44-12.16 6.13-2.82 12.8-4.23 19.99-4.23 9.31 0 17.63 2.26 24.96 6.77 7.33 4.51 13.12 10.65 17.35 18.4 4.23 7.76 6.35 16.5 6.35 26.23s-2.12 18.44-6.35 26.13c-4.23 7.69-10.02 13.79-17.35 18.3-7.34 4.52-15.66 6.77-24.96 6.77Zm-1.9-10.15c7.75 0 14.6-1.76 20.52-5.29 5.92-3.52 10.58-8.39 13.96-14.6 3.38-6.2 5.08-13.33 5.08-21.37s-1.69-15.16-5.08-21.37c-3.38-6.2-8.01-11.03-13.86-14.49-5.85-3.45-12.52-5.18-19.99-5.18s-14.28 1.73-19.99 5.18c-5.71 3.46-10.19 8.29-13.43 14.49-3.25 6.21-4.87 13.4-4.87 21.58s1.59 15.13 4.76 21.26c3.17 6.13 7.62 10.97 13.33 14.49 5.71 3.53 12.23 5.29 19.57 5.29Zm109.79 10.15c-5.36 0-10.4-.74-15.12-2.22-4.73-1.48-9.03-3.56-12.9-6.24-3.88-2.68-7.3-5.78-10.26-9.31l7.19-7.19c3.95 5.22 8.57 9.06 13.86 11.53 5.29 2.47 11.11 3.7 17.45 3.7 7.33 0 13.12-1.48 17.35-4.44 4.23-2.96 6.35-7.12 6.35-12.48 0-4.79-1.34-8.57-4.02-11.32-2.68-2.75-6.17-4.9-10.47-6.45-4.3-1.55-8.81-3.03-13.54-4.44-4.73-1.41-9.24-3.1-13.54-5.08-4.3-1.97-7.79-4.72-10.47-8.25-2.68-3.52-4.02-8.25-4.02-14.17 0-5.22 1.34-9.8 4.02-13.75 2.68-3.95 6.45-7.01 11.32-9.2 4.87-2.18 10.61-3.28 17.24-3.28 7.33 0 13.93 1.27 19.78 3.81 5.85 2.54 10.54 6.28 14.07 11.21l-6.98 7.19c-2.82-3.95-6.63-7.01-11.42-9.2-4.8-2.18-10.15-3.28-16.08-3.28-7.05 0-12.41 1.48-16.08 4.44-3.67 2.96-5.5 6.77-5.5 11.42 0 4.37 1.34 7.83 4.02 10.37 2.68 2.54 6.17 4.51 10.47 5.92 4.3 1.41 8.81 2.79 13.54 4.12 4.72 1.34 9.23 3.07 13.54 5.18 4.3 2.12 7.79 5.01 10.47 8.67 2.68 3.67 4.02 8.67 4.02 15.02 0 8.46-3.1 15.2-9.31 20.2-6.21 5.01-14.53 7.51-24.96 7.51Z" class="cls-4"/><ellipse cx="104.34" cy="104.78" rx="84.4" ry="84.28" style="fill:none;opacity:.25;stroke:#fff;stroke-miterlimit:10;stroke-width:40px" transform="rotate(-45 104.341 104.78)"/><circle cx="182.99" cy="105.15" r="84.4" style="opacity:.6;fill:none;stroke:#fff;stroke-miterlimit:10;stroke-width:40px" transform="rotate(-45 182.991 105.142)"/><circle cx="260.9" cy="105.15" r="85.15" style="stroke:#fff;stroke-miterlimit:10;stroke-width:40px;fill:#010230"/></g></svg>